<svg xmlns="http://www.w3.org/2000/svg" width="29.912" height="23.543" viewBox="0 0 29.912 23.543"><defs><style>.a{fill:#fff;}</style></defs><path class="a" d="M28.917,48.468a3.216,3.216,0,0,0-2.36-1h-4.72v-.057a2.553,2.553,0,0,0-.768-1.848,2.6,2.6,0,0,0-1.848-.768h-8.53a2.621,2.621,0,0,0-2.644,2.616v.057H3.355a3.216,3.216,0,0,0-2.36,1,3.38,3.38,0,0,0-1,2.36v14.16a3.216,3.216,0,0,0,1,2.36,3.38,3.38,0,0,0,2.36,1h23.2a3.216,3.216,0,0,0,2.36-1,3.38,3.38,0,0,0,1-2.36V50.828A3.216,3.216,0,0,0,28.917,48.468Zm-.483,16.52H28.4a1.844,1.844,0,0,1-1.848,1.848H3.355a1.844,1.844,0,0,1-1.848-1.848V50.828A1.844,1.844,0,0,1,3.355,48.98H8.843a.765.765,0,0,0,.768-.768v-.825a1.07,1.07,0,0,1,1.109-1.109h8.5a1.07,1.07,0,0,1,1.109,1.109v.825a.765.765,0,0,0,.768.768h5.488a1.844,1.844,0,0,1,1.848,1.848Z" transform="translate(0 -44.8)"/><path class="a" d="M118.995,130.8a6.99,6.99,0,1,0,4.947,2.047A7.007,7.007,0,0,0,118.995,130.8Zm3.867,10.89a5.492,5.492,0,0,1-7.734,0,5.436,5.436,0,0,1-1.592-3.867,5.557,5.557,0,0,1,1.592-3.867,5.436,5.436,0,0,1,3.867-1.592,5.556,5.556,0,0,1,3.867,1.592,5.436,5.436,0,0,1,1.592,3.867A5.32,5.32,0,0,1,122.861,141.69Z" transform="translate(-104.039 -124.687)"/><circle class="a" cx="1.393" cy="1.393" r="1.393" transform="translate(23.685 6.085)"/></svg>